<svg enable-background="new 0 0 64 64" height="64" viewBox="0 0 64 64" width="64" xmlns="http://www.w3.org/2000/svg"><path d="m31.005 16h13.99v32h-13.99z" fill="#e6e9ed"/><path d="m42.992 16v32h.653.349 1v-32z" fill="#ccd1d9"/><path d="m22.005 53v7h-6v-56h6v7z" fill="#ccd1d9"/><path d="m45.995 51c1.11 0 2 .9 2 2 0 1.11-.88 1.99-1.99 2h-.01-15.99-.01c-1.1-.01-1.99-.89-1.99-2 0-1.1.9-2 2-2z" fill="#e6e9ed"/><path d="m45.995 51h-2.002c1.11 0 2 .9 2 2 0 1.11-.88 1.99-1.99 2h1.992.01c1.11-.01 1.99-.89 1.99-2 0-1.1-.89-2-2-2z" fill="#ccd1d9"/><path d="m45.995 55h.01c0 4.42-3.58 8-8 8s-8.01-3.58-8.01-8h.01z" fill="#ccd1d9"/><path d="m45.995 55h-1.992c0 4.08-3.053 7.438-6.999 7.931.329.041.661.069 1.001.069 4.42 0 8-3.58 8-8z" fill="#aab2bd"/><path d="m46.005 9c1.11.01 1.99.89 1.99 2 0 1.1-.89 2-2 2h-15.99c-1.1 0-2-.9-2-2 0-1.11.891-1.99 1.99-2h.01 15.99z" fill="#e6e9ed"/><path d="m46.005 9h-.01-1.992c1.11.01 1.99.89 1.99 2 0 1.1-.89 2-2 2h2.002c1.11 0 2-.9 2-2 0-1.11-.88-1.99-1.99-2z" fill="#ccd1d9"/><path d="m46.005 9h-.01-15.99-.01c0-4.42 3.59-8 8.01-8s8 3.58 8 8z" fill="#ccd1d9"/><path d="m38.005 1c-.34 0-.672.028-1.001.069 3.946.494 6.999 3.851 6.999 7.931h1.992.01c0-4.42-3.58-8-8-8z" fill="#aab2bd"/><path d="m44.995 30v8h-.01c0 3.32-2.681 6-6 6l-1.98.01c-3.32 0-6 2.69-6 6v-8.01c0-3.31 2.68-5.99 6-5.99l1.98-.01c3.319 0 6-2.69 6-6z" fill="#ed5565"/><path d="m44.995 13.99v8h-.01c0 3.32-2.681 6-6 6l-1.98.01c-3.32 0-6 2.69-6 6v-8.01c0-3.31 2.68-5.99 6-5.99l1.98-.01c3.319 0 6-2.69 6-6z" fill="#5d9cec"/><path d="m45.995 48v3h-15.99v-3h1 .35 13.64z" fill="#656d78"/><path d="m44.995 48h-1.002v3h2.002v-3z" fill="#545c66"/><path d="m45.995 13v3h-1-.349-13.641-1v-3z" fill="#656d78"/><path d="m43.993 13v3h.653.349 1v-3z" fill="#545c66"/><path d="m42.992 18.448v8.003c1.222-1.097 1.993-2.685 1.993-4.461h.009v-5.99h-.361c-.338.949-.906 1.787-1.641 2.448z" fill="#4a89dc"/><path d="m42.992 42.461c1.222-1.097 1.993-2.685 1.993-4.461h.009v-8h-.009c0 1.771-.771 3.358-1.993 4.458z" fill="#da4453"/><path d="m46.006 10.003c-.553 0-1-.447-1-1 0-3.861-3.142-7.003-7.003-7.003s-7.003 3.142-7.003 7.003c0 .553-.447 1-1 1s-1-.447-1-1c0-4.964 4.039-9.003 9.003-9.003s9.003 4.039 9.003 9.003c0 .553-.447 1-1 1z"/><path d="m38.003 64c-4.964 0-9.003-4.039-9.003-9.003 0-.553.447-1 1-1s1 .447 1 1c0 3.861 3.142 7.003 7.003 7.003s7.003-3.142 7.003-7.003c0-.553.447-1 1-1s1 .447 1 1c0 4.964-4.039 9.003-9.003 9.003z"/><path d="m46 9.997h-15.994c-.553 0-1-.447-1-1s.447-1 1-1h15.994c.553 0 1 .447 1 1s-.447 1-1 1z"/><path d="m30.008 13.997c-1.654 0-3-1.346-3-3s1.346-3 3-3c.553 0 1 .447 1 1s-.447 1-1 1c-.552 0-1 .448-1 1s.448 1 1 1c.553 0 1 .447 1 1s-.447 1-1 1z"/><path d="m45.998 13.997c-.553 0-1-.447-1-1s.447-1 1-1c.552 0 1-.448 1-1s-.448-1-1-1c-.553 0-1-.447-1-1s.447-1 1-1c1.654 0 3 1.346 3 3s-1.346 3-3 3z"/><path d="m45.998 13.997h-15.99c-.553 0-1-.447-1-1s.447-1 1-1h15.99c.553 0 1 .447 1 1s-.447 1-1 1z"/><path d="m45.998 56.003c-.553 0-1-.447-1-1s.447-1 1-1c.552 0 1-.448 1-1s-.448-1-1-1c-.553 0-1-.447-1-1s.447-1 1-1c1.654 0 3 1.346 3 3s-1.346 3-3 3z"/><path d="m30.008 56.003c-1.654 0-3-1.346-3-3s1.346-3 3-3c.553 0 1 .447 1 1s-.447 1-1 1c-.552 0-1 .448-1 1s.448 1 1 1c.553 0 1 .447 1 1s-.447 1-1 1z"/><path d="m45.998 52.003h-15.99c-.553 0-1-.447-1-1s.447-1 1-1h15.99c.553 0 1 .447 1 1s-.447 1-1 1z"/><path d="m46 56.003h-15.994c-.553 0-1-.447-1-1s.447-1 1-1h15.994c.553 0 1 .447 1 1s-.447 1-1 1z"/><path d="m31.009 49c-.553 0-1-.447-1-1v-32c0-.553.447-1 1-1s1 .447 1 1v32c0 .553-.447 1-1 1z"/><path d="m44.997 49c-.553 0-1-.447-1-1v-32c0-.553.447-1 1-1s1 .447 1 1v32c0 .553-.447 1-1 1z"/><path d="m30.008 52.003c-.553 0-1-.447-1-1v-3c0-.553.447-1 1-1s1 .447 1 1v3c0 .553-.447 1-1 1z"/><path d="m45.998 49.003h-15.99c-.553 0-1-.447-1-1s.447-1 1-1h15.99c.553 0 1 .447 1 1s-.447 1-1 1z"/><path d="m45.998 52.003c-.553 0-1-.447-1-1v-3c0-.553.447-1 1-1s1 .447 1 1v3c0 .553-.447 1-1 1z"/><path d="m45.998 16.997c-.553 0-1-.447-1-1v-3c0-.553.447-1 1-1s1 .447 1 1v3c0 .553-.447 1-1 1z"/><path d="m45.998 16.997h-15.99c-.553 0-1-.447-1-1s.447-1 1-1h15.99c.553 0 1 .447 1 1s-.447 1-1 1z"/><path d="m30.008 16.997c-.553 0-1-.447-1-1v-3c0-.553.447-1 1-1s1 .447 1 1v3c0 .553-.447 1-1 1z"/><path d="m31.006 35.003c-.553 0-1-.447-1-1 0-3.858 3.14-6.998 6.998-6.998.553 0 1 .447 1 1s-.447 1-1 1c-2.756 0-4.998 2.242-4.998 4.998 0 .553-.447 1-1 1z"/><path d="m31.006 27.007c-.553 0-1-.447-1-1 0-3.861 3.142-7.003 7.003-7.003.553 0 1 .447 1 1s-.447 1-1 1c-2.759 0-5.003 2.244-5.003 5.003 0 .553-.447 1-1 1z"/><path d="m38.989 20.995c-.553 0-1-.447-1-1s.447-1 1-1c2.114 0 4.009-1.337 4.714-3.328.184-.52.754-.793 1.276-.608.521.184.793.756.608 1.276-.985 2.787-3.638 4.66-6.598 4.66z"/><path d="m38.984 28.996c-.553 0-1-.447-1-1s.447-1 1-1c2.759 0 5.003-2.244 5.003-5.003 0-.553.447-1 1-1s1 .447 1 1c0 3.861-3.141 7.003-7.003 7.003z"/><path d="m38.989 21.004h-1.98c-.553 0-1-.447-1-1s.447-1 1-1h1.98c.553 0 1 .447 1 1s-.447 1-1 1z"/><path d="m38.989 29.008h-1.98c-.553 0-1-.447-1-1s.447-1 1-1h1.98c.553 0 1 .447 1 1s-.447 1-1 1z"/><path d="m31.006 43.009c-.553 0-1-.447-1-1 0-3.858 3.14-6.998 6.998-6.998.553 0 1 .447 1 1s-.447 1-1 1c-2.756 0-4.998 2.242-4.998 4.998 0 .553-.447 1-1 1z"/><path d="m38.984 37.002c-.553 0-1-.447-1-1s.447-1 1-1c2.759 0 5.003-2.244 5.003-5.003 0-.553.447-1 1-1s1 .447 1 1c0 3.861-3.141 7.003-7.003 7.003z"/><path d="m38.989 37.014h-1.98c-.553 0-1-.447-1-1s.447-1 1-1h1.98c.553 0 1 .447 1 1s-.447 1-1 1z"/><path d="m31.352 48.999c-.111 0-.225-.019-.336-.058-.52-.186-.791-.758-.606-1.278.99-2.779 3.641-4.646 6.595-4.646.553 0 1 .447 1 1s-.447 1-1 1c-2.11 0-4.004 1.333-4.71 3.318-.148.409-.532.664-.943.664z"/><path d="m38.984 45.008c-.553 0-1-.447-1-1s.447-1 1-1c2.759 0 5.003-2.244 5.003-5.003 0-.553.447-1 1-1s1 .447 1 1c0 3.861-3.141 7.003-7.003 7.003z"/><path d="m38.989 45.02h-1.98c-.553 0-1-.447-1-1s.447-1 1-1h1.98c.553 0 1 .447 1 1s-.447 1-1 1z"/><path d="m28.008 11.997h-6.006c-.553 0-1-.447-1-1s.447-1 1-1h6.006c.553 0 1 .447 1 1s-.447 1-1 1z"/><path d="m28.008 54.003h-6.007c-.553 0-1-.447-1-1s.447-1 1-1h6.007c.553 0 1 .447 1 1s-.447 1-1 1z"/><path d="m22.002 61.004c-.553 0-1-.447-1-1v-56.008c0-.553.447-1 1-1s1 .447 1 1v56.008c0 .553-.447 1-1 1z"/><path d="m22.002 4.996h-6c-.553 0-1-.447-1-1s.447-1 1-1h6c.553 0 1 .447 1 1s-.447 1-1 1z"/><path d="m22.002 61h-6c-.553 0-1-.447-1-1s.447-1 1-1h6c.553 0 1 .447 1 1s-.447 1-1 1z"/><path d="m16.002 63.996c-.553 0-1-.447-1-1v-61.996c0-.553.447-1 1-1s1 .447 1 1v61.996c0 .553-.447 1-1 1z"/></svg>