<?xml version="1.0" standalone="no"?><svg xmlns:xlink="http://www.w3.org/1999/xlink" xmlns="http://www.w3.org/2000/svg" viewBox="0 0 1000 666.6666666666666" preserveAspectRatio="xMaxYMax slice"><g transform="scale(1.8674136321195145)"><rect x="0" y="0" width="535.5" height="357" fill="#ffffff"/><rect x="0" y="0" width="89.25" height="89.25" fill="#e7e6e6"/><rect x="0" y="0" width="89.25" height="89.25" fill="#ead2b2"/><rect x="89.25" y="0" width="89.25" height="89.25" fill="#f5eadc"/><rect x="89.25" y="0" width="89.25" height="89.25" fill="#f8f7f7"/><rect x="178.5" y="0" width="89.25" height="89.25" fill="#f6ecdf"/><path d="M 178.5 0 A 89.25 89.25 0 0 1 267.75 89.25 L 178.5 89.25" fill="#f8f8f8"/><rect x="267.75" y="0" width="89.25" height="89.25" fill="#deb988"/><rect x="267.75" y="0" width="89.25" height="89.25" fill="#f2e3d0"/><rect x="357" y="0" width="89.25" height="89.25" fill="#e1be91"/><polygon points="357,0 446.25,0 357,89.25" fill="#dbd9d9"/><rect x="446.25" y="0" width="89.25" height="89.25" fill="#f6ede0"/><polygon points="446.25,0 535.5,0 446.25,89.25" fill="#e4c49b"/><rect x="0" y="89.25" width="89.25" height="89.25" fill="#eae8e8"/><path d="M 0 178.5 A 89.25 89.25 0 0 1  89.25 89.25 L 89.25 178.5" fill="#f2f2f2"/><rect x="89.25" y="89.25" width="89.25" height="89.25" fill="#eedbc2"/><path d="M 89.25 178.5 A 89.25 89.25 0 0 1  178.5 89.25 L 178.5 178.5" fill="#dbd9d9"/><rect x="178.5" y="89.25" width="89.25" height="89.25" fill="#fdfaf6"/><path d="M 178.5 178.5 A 89.25 89.25 0 0 0 267.75 89.25 L 178.5 89.25" fill="#e0bb8d"/><rect x="267.75" y="89.25" width="89.25" height="89.25" fill="#e5e4e4"/><path d="M 267.75 178.5 A 89.25 89.25 0 0 1  357 89.25 L 267.75 178.5 A 89.25 89.25 0 0 0 357 89.25" fill="#fefcfa"/><rect x="357" y="89.25" width="89.25" height="89.25" fill="#fdfdfd"/><path d="M 357 178.5 A 89.25 89.25 0 0 1  446.25 89.25 L 446.25 178.5" fill="#f3f3f3"/><rect x="446.25" y="89.25" width="89.25" height="89.25" fill="#f4f4f4"/><path d="M 446.25 178.5 A 89.25 89.25 0 0 0 535.5 89.25 L 446.25 89.25" fill="#e7cba7"/><rect x="0" y="178.5" width="89.25" height="89.25" fill="#fafafa"/><rect x="0" y="178.5" width="89.25" height="89.25" fill="#e8e7e7"/><rect x="89.25" y="178.5" width="89.25" height="89.25" fill="#ecd7bc"/><rect x="89.25" y="178.5" width="89.25" height="89.25" fill="#f2e4d1"/><rect x="178.5" y="178.5" width="89.25" height="89.25" fill="#e2e0e0"/><rect x="178.5" y="178.5" width="89.25" height="89.25" fill="#f2f1f1"/><rect x="267.75" y="178.5" width="89.25" height="89.25" fill="#f9f8f8"/><rect x="267.75" y="178.5" width="89.25" height="89.25" fill="#e4c59c"/><rect x="357" y="178.5" width="89.25" height="89.25" fill="#e8ceac"/><polygon points="446.25,178.5 446.25,267.75 357,267.75" fill="#ecd6b9"/><rect x="446.25" y="178.5" width="89.25" height="89.25" fill="#e5c7a0"/><rect x="446.25" y="178.5" width="89.25" height="89.25" fill="#dddbdb"/><rect x="0" y="267.75" width="89.25" height="89.25" fill="#f5f4f4"/><rect x="0" y="267.75" width="89.25" height="89.25" fill="#fdfbf9"/><rect x="89.25" y="267.75" width="89.25" height="89.25" fill="#dfba8a"/><polygon points="89.25,267.75 178.5,267.75 89.25,357" fill="#f2f1f1"/><rect x="178.5" y="267.75" width="89.25" height="89.25" fill="#e1bf93"/><rect x="178.5" y="267.75" width="89.25" height="89.25" fill="#f9f3ea"/><rect x="267.75" y="267.75" width="89.25" height="89.25" fill="#d9d7d7"/><path d="M 267.75 267.75 A 89.25 89.25 0 0 0 357 357 L 357 267.75" fill="#ebeaea"/><rect x="357" y="267.75" width="89.25" height="89.25" fill="#ead3b4"/><rect x="357" y="267.75" width="89.25" height="89.25" fill="#f9f9f9"/><rect x="446.25" y="267.75" width="89.25" height="89.25" fill="#f5e9da"/><path d="M 446.25 267.75 A 89.25 89.25 0 0 1  535.5 357 L 446.25 267.75 A 89.25 89.25 0 0 0 535.5 357" fill="#fcf8f4"/></g></svg>